<?xml version="1.0" encoding="utf-8"?>
<!-- Generator: Adobe Illustrator 15.1.0, SVG Export Plug-In . SVG Version: 6.00 Build 0)  -->
<!DOCTYPE svg PUBLIC "-//W3C//DTD SVG 1.1//EN" "http://www.w3.org/Graphics/SVG/1.1/DTD/svg11.dtd">
<svg version="1.1" id="Слой_1" xmlns="http://www.w3.org/2000/svg" xmlns:xlink="http://www.w3.org/1999/xlink" x="0px" y="0px"
	 width="51.245px" height="36.19px" viewBox="0 0 51.245 36.19" enable-background="new 0 0 51.245 36.19" xml:space="preserve">
<path fill="#4C7BB3" d="M46.949,26.354c0,0-0.875-1.781-0.25-2.5c1.16-1.334,3.625-3.625,3.625-9.938s-3.688-13.375-8.938-13.75
	s-11.75,0-11.75,0s-0.75,0.188-0.75,1.75s0,17.875,0,17.875s-0.063,1.25-1.25,1.25s-3.563,0-3.563,0s-1,0.125-1-1.594V1.667
	c0,0,0.063-1.5-2.125-1.5S9.574-1.146,6.636,7.959c-2.641,8.184-3.928,22.224-6.561,27.434c-0.055,0.213-0.335,0.798,0.703,0.774
	h3.858c0,0,1.75-0.063,2.563-2.563s0.875-6.75,1.375-7.25h7.563c0,0,0.687,0.062,0.813,0.188c0.23,0.23,0.25,0.75,0.25,0.75v7.563
	c0,0-0.188,1.313,1.063,1.313s4.188,0,4.188,0s0.688,0,0.688-1.063s0-8,0-8s-0.25-0.656,0.656-0.656s4.281,0,4.281,0
	s1.016-0.25,1.016,1.016s0,7.453,0,7.453s-0.188,1.273,1.273,1.273s3.711,0,3.711,0s0.949-0.125,0.949-0.949s0-8.074,0-8.074
	s0-0.713,0.713-0.713s5.025,0,5.025,0s0.65,0.063,0.888,0.888c0.208,0.722,3.152,6.937,3.886,8.479
	c0.247,0.15,0.227,0.369,0.802,0.325l4.375-0.138c0.038-0.022,0.644-0.061,0.516-0.87L46.949,26.354z M16.699,19.167
	c0,1.438-0.625,1.313-0.625,1.313s-4.514,0.194-5.875,0c-0.438-0.063-0.438-0.063,0.125-4.375s2.438-7.313,4.25-8.625
	s2.125,0.563,2.125,0.563V19.167z M43.136,16.104c-0.063,3.688-3.25,4.378-3.25,4.378s-2.063,0-3.563,0s-1.375-1.065-1.375-1.065
	V8.667c0-1.688,1.063-1.938,1.063-1.938h2.5c4.652-0.375,4.625,3.938,4.625,3.938S43.199,12.417,43.136,16.104z"/>
</svg>
