<?xml version="1.0" encoding="utf-8"?>
<!-- Generator: Adobe Illustrator 15.1.0, SVG Export Plug-In . SVG Version: 6.00 Build 0)  -->
<!DOCTYPE svg PUBLIC "-//W3C//DTD SVG 1.1//EN" "http://www.w3.org/Graphics/SVG/1.1/DTD/svg11.dtd">
<svg version="1.1" id="Слой_1" xmlns="http://www.w3.org/2000/svg" xmlns:xlink="http://www.w3.org/1999/xlink" x="0px" y="0px"
	 width="152px" height="36.19px" viewBox="0 0 152 36.19" enable-background="new 0 0 152 36.19" xml:space="preserve">
<path fill="#FFFFFF" d="M46.949,26.354c0,0-0.875-1.781-0.25-2.5c1.16-1.334,3.625-3.625,3.625-9.938s-3.688-13.375-8.938-13.75
	s-11.75,0-11.75,0s-0.75,0.188-0.75,1.75s0,17.875,0,17.875s-0.063,1.25-1.25,1.25s-3.563,0-3.563,0s-1,0.125-1-1.594V1.667
	c0,0,0.063-1.5-2.125-1.5S9.574-1.146,6.636,7.958c-2.641,8.184-3.928,22.224-6.561,27.434c-0.055,0.213-0.335,0.798,0.703,0.774
	h3.858c0,0,1.75-0.063,2.563-2.563s0.875-6.75,1.375-7.25h7.563c0,0,0.687,0.062,0.813,0.188c0.23,0.23,0.25,0.75,0.25,0.75v7.563
	c0,0-0.188,1.313,1.063,1.313s4.188,0,4.188,0s0.688,0,0.688-1.063s0-8,0-8s-0.25-0.656,0.656-0.656s4.281,0,4.281,0
	s1.016-0.25,1.016,1.016s0,7.453,0,7.453s-0.188,1.273,1.273,1.273s3.711,0,3.711,0s0.949-0.125,0.949-0.949s0-8.074,0-8.074
	s0-0.713,0.713-0.713s5.025,0,5.025,0s0.65,0.063,0.888,0.888c0.208,0.722,3.152,6.937,3.886,8.479
	c0.247,0.15,0.227,0.369,0.802,0.325l4.375-0.138c0.038-0.022,0.644-0.061,0.516-0.87L46.949,26.354z M16.699,19.167
	c0,1.438-0.625,1.313-0.625,1.313s-4.514,0.194-5.875,0c-0.438-0.063-0.438-0.063,0.125-4.375s2.438-7.313,4.25-8.625
	s2.125,0.563,2.125,0.563V19.167z M43.136,16.104c-0.063,3.688-3.25,4.378-3.25,4.378s-2.063,0-3.563,0s-1.375-1.065-1.375-1.065
	V8.667c0-1.688,1.063-1.938,1.063-1.938h2.5c4.652-0.375,4.625,3.938,4.625,3.938S43.199,12.417,43.136,16.104z"/>
<path fill="#FFFFFF" d="M61.625,0.04"/>
<g>
	<polygon fill="#FFFFFF" points="86.323,20.718 90.876,20.718 88.6,13.721 	"/>
	<path fill="#FFFFFF" d="M72.326,11.043c-0.354,0-0.694,0.021-1.022,0.064v6.066c0.569,0.061,1.017,0.09,1.345,0.09
		c1.535,0,2.655-0.256,3.363-0.77c0.707-0.513,1.061-1.347,1.061-2.503C77.073,12.026,75.49,11.043,72.326,11.043z"/>
	<path fill="#FFFFFF" d="M107.552,11.586c-0.698-0.371-1.798-0.556-3.299-0.556c-0.361,0-0.741,0.026-1.138,0.078v5.264
		c0.621,0.052,1.095,0.078,1.423,0.078c1.405,0,2.434-0.198,3.085-0.595c0.65-0.396,0.977-1.168,0.977-2.315
		C108.6,12.608,108.25,11.958,107.552,11.586z"/>
	<path fill="#FFFFFF" d="M147.465,0.04H62.786c-2.505,0-4.536,2.031-4.536,4.536v26.929c0,2.505,2.031,4.535,4.536,4.535h78.464
		c6.501,0,10.75-5.125,10.75-12.125V4.575C152,2.07,149.97,0.04,147.465,0.04z M72.831,20.252c-0.38,0-0.888-0.029-1.526-0.09v6.972
		h-3.363V8.198c2.242-0.095,3.553-0.143,3.932-0.143c2.992,0,5.181,0.459,6.564,1.378c1.384,0.918,2.076,2.352,2.076,4.3
		C80.514,18.08,77.952,20.252,72.831,20.252z M93.243,27.134l-1.384-3.842h-6.493l-1.319,3.842h-3.738l7.554-19.208h1.475
		l7.618,19.208H93.243z M110.307,27.134l-5.058-7.825c-0.509-0.009-1.22-0.039-2.134-0.091v7.916h-3.492V8.185
		c0.189,0,0.918-0.032,2.186-0.097c1.268-0.065,2.29-0.097,3.065-0.097c4.812,0,7.218,1.862,7.218,5.588
		c0,1.121-0.332,2.143-0.996,3.065s-1.5,1.574-2.509,1.953l5.601,8.537H110.307z M129.4,11.172h-6.299v15.962h-3.363V11.172h-6.027
		V8.185H129.4V11.172z M141.013,25.97c-1.212,0.991-2.835,1.487-4.87,1.487c-1.768,0-3.362-0.457-4.785-1.371l1.241-3.014
		c1.328,0.932,2.635,1.397,3.919,1.397c1.975,0,2.962-0.69,2.962-2.07c0-0.646-0.232-1.263-0.698-1.85
		c-0.466-0.586-1.425-1.244-2.878-1.973s-2.432-1.328-2.936-1.798c-0.505-0.47-0.893-1.028-1.164-1.675
		c-0.272-0.646-0.408-1.362-0.408-2.147c0-1.466,0.537-2.682,1.61-3.647c1.074-0.966,2.451-1.449,4.133-1.449
		c2.19,0,3.799,0.41,4.824,1.229l-1.021,2.897c-1.182-0.845-2.428-1.268-3.738-1.268c-0.775,0-1.377,0.205-1.804,0.615
		s-0.641,0.942-0.641,1.597c0,1.086,1.203,2.216,3.608,3.389c1.268,0.621,2.182,1.192,2.742,1.714
		c0.561,0.522,0.987,1.13,1.281,1.824c0.293,0.694,0.439,1.469,0.439,2.322C142.83,23.715,142.224,24.979,141.013,25.97z"/>
</g>
</svg>
