<?xml version="1.0" encoding="utf-8"?>
<!-- Generator: Adobe Illustrator 15.1.0, SVG Export Plug-In . SVG Version: 6.00 Build 0)  -->
<!DOCTYPE svg PUBLIC "-//W3C//DTD SVG 1.1//EN" "http://www.w3.org/Graphics/SVG/1.1/DTD/svg11.dtd">
<svg version="1.1" id="Слой_1" xmlns="http://www.w3.org/2000/svg" xmlns:xlink="http://www.w3.org/1999/xlink" x="0px" y="0px"
	 width="24.459px" height="25.21px" viewBox="0 0 24.459 25.21" enable-background="new 0 0 24.459 25.21" xml:space="preserve">
<g>
	<path fill="#CB2F30" d="M24.089,15.223L9.256,8.14c-0.241-0.114-0.528-0.07-0.724,0.111C8.337,8.434,8.273,8.717,8.372,8.965
		l6.25,15.833c0.099,0.25,0.34,0.412,0.604,0.412c0.021,0,0.043-0.002,0.066-0.004c0.289-0.029,0.523-0.248,0.574-0.534l1.33-7.594
		l6.673-0.621c0.292-0.027,0.528-0.245,0.58-0.533S24.353,15.349,24.089,15.223z M16.583,15.829c-0.292,0.027-0.53,0.246-0.58,0.535
		l-1.019,5.812l-4.796-12.15l11.215,5.355L16.583,15.829z"/>
	<path fill="#CB2F30" d="M6.1,11.85l-3.583,3.584c-0.254,0.254-0.254,0.666,0,0.92c0.127,0.127,0.293,0.19,0.459,0.19
		s0.333-0.063,0.459-0.19l3.583-3.584c0.254-0.254,0.254-0.666,0-0.92S6.354,11.596,6.1,11.85z"/>
	<path fill="#CB2F30" d="M5.719,10.01c0.358,0,0.649-0.29,0.65-0.648C6.37,9.002,6.08,8.711,5.721,8.709L0.652,8.693
		c0,0-0.001,0-0.002,0c-0.358,0-0.649,0.29-0.65,0.648c-0.001,0.359,0.289,0.65,0.648,0.652l5.069,0.016
		C5.717,10.01,5.718,10.01,5.719,10.01z"/>
	<path fill="#CB2F30" d="M3.18,2.293C2.907,2.061,2.498,2.092,2.264,2.364C2.03,2.638,2.063,3.048,2.335,3.281l3.853,3.295
		C6.311,6.681,6.461,6.732,6.61,6.732c0.184,0,0.366-0.077,0.495-0.228c0.233-0.273,0.201-0.684-0.072-0.917L3.18,2.293z"/>
	<path fill="#CB2F30" d="M9.619,6.369c0.001,0,0.003,0,0.005,0c0.359-0.003,0.647-0.296,0.645-0.655l-0.037-5.068
		C10.23,0.288,9.939,0,9.583,0C9.581,0,9.58,0,9.578,0C9.219,0.003,8.93,0.296,8.933,0.655l0.037,5.068
		C8.972,6.081,9.262,6.369,9.619,6.369z"/>
	<path fill="#CB2F30" d="M12.226,7.293c0.167,0,0.333-0.063,0.459-0.19l3.583-3.584c0.254-0.254,0.254-0.666,0-0.92
		s-0.665-0.254-0.919,0l-3.583,3.584c-0.254,0.254-0.254,0.666,0,0.92C11.894,7.229,12.06,7.293,12.226,7.293z"/>
</g>
</svg>
