<?xml version="1.0" encoding="utf-8"?>
<!-- Generator: Adobe Illustrator 15.1.0, SVG Export Plug-In . SVG Version: 6.00 Build 0)  -->
<!DOCTYPE svg PUBLIC "-//W3C//DTD SVG 1.1//EN" "http://www.w3.org/Graphics/SVG/1.1/DTD/svg11.dtd">
<svg version="1.1" id="Слой_1" xmlns="http://www.w3.org/2000/svg" xmlns:xlink="http://www.w3.org/1999/xlink" x="0px" y="0px"
	 width="15.875px" height="15.875px" viewBox="0 0 15.875 15.875" enable-background="new 0 0 15.875 15.875" xml:space="preserve">
<path fill="#A4B3B7" d="M7.938,0C3.554,0,0,3.554,0,7.938s3.554,7.938,7.938,7.938s7.938-3.554,7.938-7.938S12.321,0,7.938,0z
	 M8.803,12.633c-0.063,0.146-0.146,0.271-0.253,0.374s-0.232,0.186-0.377,0.245c-0.146,0.06-0.301,0.09-0.467,0.09
	c-0.167,0-0.322-0.03-0.467-0.09c-0.145-0.06-0.271-0.142-0.377-0.245s-0.189-0.229-0.249-0.374
	c-0.06-0.145-0.089-0.301-0.089-0.467c0-0.16,0.03-0.313,0.089-0.459s0.143-0.27,0.249-0.373c0.106-0.104,0.232-0.188,0.377-0.25
	c0.146-0.062,0.301-0.093,0.467-0.093c0.166,0,0.321,0.031,0.467,0.093c0.145,0.063,0.271,0.146,0.377,0.25
	c0.106,0.104,0.19,0.228,0.253,0.373c0.062,0.146,0.093,0.299,0.093,0.459C8.896,12.332,8.865,12.488,8.803,12.633z M10.865,6.808
	c-0.109,0.275-0.247,0.516-0.413,0.721c-0.166,0.204-0.348,0.384-0.545,0.536C9.71,8.218,9.525,8.359,9.352,8.489
	S9.026,8.747,8.896,8.874C8.767,9.001,8.688,9.146,8.663,9.306l-0.187,1.082H7.129L6.981,9.166C6.951,8.928,6.984,8.72,7.083,8.543
	c0.098-0.176,0.229-0.338,0.393-0.486c0.164-0.147,0.345-0.29,0.545-0.428s0.387-0.285,0.561-0.443S8.9,6.847,9.017,6.645
	s0.175-0.441,0.175-0.716c0-0.343-0.12-0.613-0.358-0.813c-0.239-0.199-0.553-0.3-0.942-0.3c-0.28,0-0.516,0.031-0.708,0.094
	S6.827,5.039,6.69,5.111C6.552,5.185,6.437,5.252,6.343,5.313C6.25,5.376,6.162,5.407,6.079,5.407c-0.177,0-0.314-0.08-0.413-0.241
	L5.145,4.333c0.176-0.15,0.367-0.293,0.572-0.428c0.205-0.135,0.428-0.253,0.669-0.354c0.241-0.101,0.5-0.18,0.778-0.237
	c0.277-0.057,0.577-0.085,0.899-0.085c0.446,0,0.851,0.061,1.214,0.183s0.674,0.296,0.934,0.521c0.259,0.226,0.46,0.498,0.603,0.816
	c0.143,0.319,0.214,0.677,0.214,1.07C11.028,6.203,10.974,6.533,10.865,6.808z"/>
</svg>
