<?xml version="1.0" encoding="utf-8"?>
<!-- Generator: Adobe Illustrator 15.1.0, SVG Export Plug-In . SVG Version: 6.00 Build 0)  -->
<!DOCTYPE svg PUBLIC "-//W3C//DTD SVG 1.1//EN" "http://www.w3.org/Graphics/SVG/1.1/DTD/svg11.dtd">
<svg version="1.1" id="Слой_1" xmlns="http://www.w3.org/2000/svg" xmlns:xlink="http://www.w3.org/1999/xlink" x="0px" y="0px"
	 width="24px" height="19.458px" viewBox="0 0 24 19.458" enable-background="new 0 0 24 19.458" xml:space="preserve">
<path fill="#4C7BB3" d="M21.063,3.208h-4.375V2.834c0-1.565-1.27-2.834-2.835-2.834h-3.706C8.582,0,7.313,1.269,7.313,2.834v0.374
	H2.936C1.314,3.208,0,4.477,0,6.042v10.581c0,1.565,1.314,2.835,2.936,2.835h18.127c1.622,0,2.938-1.27,2.938-2.835V6.042
	C24,4.477,22.685,3.208,21.063,3.208z M12,16.167c-2.911,0-5.271-2.36-5.271-5.271c0-2.911,2.36-5.271,5.271-5.271
	s5.271,2.36,5.271,5.271C17.271,13.807,14.911,16.167,12,16.167z"/>
<circle fill="#4C7BB3" cx="12" cy="10.936" r="2.562"/>
</svg>
