<?xml version="1.0" encoding="utf-8"?>
<!-- Generator: Adobe Illustrator 15.1.0, SVG Export Plug-In . SVG Version: 6.00 Build 0)  -->
<!DOCTYPE svg PUBLIC "-//W3C//DTD SVG 1.1//EN" "http://www.w3.org/Graphics/SVG/1.1/DTD/svg11.dtd">
<svg version="1.1" id="Слой_1" xmlns="http://www.w3.org/2000/svg" xmlns:xlink="http://www.w3.org/1999/xlink" x="0px" y="0px"
	 width="31.688px" height="28.603px" viewBox="0 0 31.688 28.603" enable-background="new 0 0 31.688 28.603" xml:space="preserve">
<g>
	<path fill="#4C7BB3" d="M10.781,21.479c-1.964,0-3.563,1.598-3.563,3.562c0,1.965,1.598,3.563,3.563,3.563
		c1.964,0,3.562-1.598,3.562-3.563C14.343,23.076,12.745,21.479,10.781,21.479z M10.781,26.603c-0.861,0-1.563-0.701-1.563-1.563
		s0.701-1.562,1.563-1.562c0.861,0,1.562,0.7,1.562,1.562S11.642,26.603,10.781,26.603z"/>
	<path fill="#4C7BB3" d="M25.395,21.479c-1.965,0-3.563,1.598-3.563,3.562c0,1.965,1.598,3.563,3.563,3.563
		c1.964,0,3.562-1.598,3.562-3.563C28.956,23.076,27.358,21.479,25.395,21.479z M25.395,26.603c-0.861,0-1.563-0.701-1.563-1.563
		s0.701-1.562,1.563-1.562s1.562,0.7,1.562,1.562S26.256,26.603,25.395,26.603z"/>
	<path fill="#4C7BB3" d="M31.494,5.784c-0.188-0.257-0.488-0.409-0.807-0.409H7.247C6.848,3.692,6.582,2.486,6.563,2.188
		c0-1.352-1.115-2.079-2.25-2.188H1C0.448,0,0,0.448,0,1s0.448,1,1,1h3.239C4.377,2.027,4.53,2.102,4.563,2.188
		c0,1.104,2.99,12.765,3.907,16.313c0.114,0.441,0.512,0.75,0.968,0.75h17.5c0.437,0,0.822-0.283,0.953-0.699l3.75-11.875
		C31.737,6.372,31.683,6.041,31.494,5.784z M26.205,17.25H10.212c-0.774-3.01-1.74-6.827-2.483-9.875h21.594L26.205,17.25z"/>
</g>
</svg>
