<?xml version="1.0" encoding="utf-8"?>
<!-- Generator: Adobe Illustrator 20.1.0, SVG Export Plug-In . SVG Version: 6.00 Build 0)  -->
<svg version="1.1" id="Слой_1" xmlns="http://www.w3.org/2000/svg" xmlns:xlink="http://www.w3.org/1999/xlink" x="0px" y="0px"
	 viewBox="0 0 16.5 16.5" style="enable-background:new 0 0 16.5 16.5;" xml:space="preserve">
<path d="M16.2,14.8L12,10.5c0.8-1.1,1.3-2.5,1.3-3.9c0-3.7-3-6.6-6.6-6.6C3,0,0,3,0,6.6s3,6.6,6.6,6.6c1.5,0,2.8-0.5,3.9-1.3
	l4.3,4.3c0.2,0.2,0.5,0.3,0.7,0.3s0.5-0.1,0.7-0.3C16.6,15.8,16.6,15.2,16.2,14.8z M2,6.6C2,4.1,4.1,2,6.6,2c2.5,0,4.6,2.1,4.6,4.6
	s-2.1,4.6-4.6,4.6C4.1,11.2,2,9.2,2,6.6z"/>
</svg>
