<?xml version="1.0" encoding="utf-8"?>
<!-- Generator: Adobe Illustrator 20.1.0, SVG Export Plug-In . SVG Version: 6.00 Build 0)  -->
<svg version="1.1" id="Слой_1" xmlns="http://www.w3.org/2000/svg" xmlns:xlink="http://www.w3.org/1999/xlink" x="0px" y="0px"
	 viewBox="0 0 23.8 16.9" style="enable-background:new 0 0 23.8 16.9;" xml:space="preserve">
<g>
	<path d="M1.5,3h20.8c0.8,0,1.5-0.7,1.5-1.5S23.2,0,22.3,0H1.5C0.7,0,0,0.7,0,1.5S0.7,3,1.5,3z"/>
	<path d="M22.3,6.9H1.5C0.7,6.9,0,7.6,0,8.4s0.7,1.5,1.5,1.5h20.8c0.8,0,1.5-0.7,1.5-1.5S23.2,6.9,22.3,6.9z"/>
	<path d="M22.3,13.9H10.1c-0.8,0-1.5,0.7-1.5,1.5s0.7,1.5,1.5,1.5h12.2c0.8,0,1.5-0.7,1.5-1.5S23.2,13.9,22.3,13.9z"/>
</g>
</svg>
