<?xml version="1.0" encoding="utf-8"?>
<!-- Generator: Adobe Illustrator 15.1.0, SVG Export Plug-In . SVG Version: 6.00 Build 0)  -->
<!DOCTYPE svg PUBLIC "-//W3C//DTD SVG 1.1//EN" "http://www.w3.org/Graphics/SVG/1.1/DTD/svg11.dtd">
<svg version="1.1" id="Слой_1" xmlns="http://www.w3.org/2000/svg" xmlns:xlink="http://www.w3.org/1999/xlink" x="0px" y="0px"
	 width="41.401px" height="20.714px" viewBox="0 0 41.401 20.714" enable-background="new 0 0 41.401 20.714" xml:space="preserve">
<path fill="#CB2F30" d="M39.901,8.881H5.321l6.92-6.27c0.614-0.556,0.661-1.505,0.104-2.119c-0.557-0.614-1.505-0.661-2.119-0.104
	l-9.75,8.833C0.281,9.399,0.164,9.623,0.085,9.857c-0.016,0.042-0.02,0.083-0.031,0.126C0.024,10.108-0.002,10.229,0,10.357
	c-0.002,0.128,0.024,0.249,0.054,0.374c0.012,0.042,0.016,0.085,0.031,0.126c0.079,0.235,0.196,0.458,0.392,0.636l9.75,8.833
	c0.288,0.261,0.647,0.389,1.007,0.389c0.409,0,0.816-0.166,1.112-0.493c0.556-0.613,0.509-1.563-0.104-2.118l-6.867-6.222h34.526
	c0.828,0,1.5-0.671,1.5-1.5S40.729,8.881,39.901,8.881z"/>
</svg>
