<?xml version="1.0" encoding="utf-8"?>
<!-- Generator: Adobe Illustrator 15.1.0, SVG Export Plug-In . SVG Version: 6.00 Build 0)  -->
<!DOCTYPE svg PUBLIC "-//W3C//DTD SVG 1.1//EN" "http://www.w3.org/Graphics/SVG/1.1/DTD/svg11.dtd">
<svg version="1.1" id="Слой_1" xmlns="http://www.w3.org/2000/svg" xmlns:xlink="http://www.w3.org/1999/xlink" x="0px" y="0px"
	 width="41.401px" height="20.714px" viewBox="0 0 41.401 20.714" enable-background="new 0 0 41.401 20.714" xml:space="preserve">
<path fill="#CB2F30" d="M41.401,10.356c0.002-0.128-0.023-0.25-0.055-0.375c-0.012-0.042-0.015-0.083-0.03-0.124
	c-0.079-0.235-0.195-0.459-0.393-0.637l-9.75-8.833c-0.612-0.554-1.562-0.51-2.118,0.105c-0.557,0.614-0.51,1.563,0.104,2.119
	l6.867,6.221H1.5c-0.829,0-1.5,0.672-1.5,1.5s0.671,1.5,1.5,1.5h34.582l-6.922,6.271c-0.614,0.556-0.661,1.505-0.104,2.118
	c0.296,0.327,0.703,0.493,1.111,0.493c0.359,0,0.72-0.128,1.007-0.389l9.75-8.833c0.197-0.178,0.313-0.401,0.393-0.637
	c0.016-0.041,0.019-0.082,0.03-0.124C41.377,10.606,41.403,10.484,41.401,10.356z"/>
</svg>
