<?xml version="1.0" encoding="utf-8"?>
<!-- Generator: Adobe Illustrator 15.1.0, SVG Export Plug-In . SVG Version: 6.00 Build 0)  -->
<!DOCTYPE svg PUBLIC "-//W3C//DTD SVG 1.1//EN" "http://www.w3.org/Graphics/SVG/1.1/DTD/svg11.dtd">
<svg version="1.1" id="Слой_1" xmlns="http://www.w3.org/2000/svg" xmlns:xlink="http://www.w3.org/1999/xlink" x="0px" y="0px"
	 width="28px" height="28px" viewBox="0 0 28 28" enable-background="new 0 0 28 28" xml:space="preserve">
<g>
	<circle fill="#35AA4D" cx="14" cy="14" r="14"/>
</g>
<g>
	<path fill="#FFFFFF" d="M14,25.75c-1.517,0-2.99-0.284-4.382-0.845c-1.744,0.111-5.776,0.305-5.776,0.305
		c-0.294,0.017-0.565-0.097-0.764-0.302c-0.2-0.205-0.302-0.485-0.281-0.771c0,0,0.293-3.946,0.422-5.46
		C2.576,17.199,2.25,15.627,2.25,14C2.25,7.521,7.521,2.25,14,2.25c6.479,0,11.75,5.271,11.75,11.75
		C25.75,20.479,20.479,25.75,14,25.75z M9.785,22.892c0.135,0,0.269,0.027,0.393,0.08c1.209,0.517,2.495,0.778,3.823,0.778
		c5.376,0,9.75-4.374,9.75-9.75S19.376,4.25,14,4.25S4.25,8.624,4.25,14c0,1.427,0.301,2.801,0.895,4.085
		c0.074,0.159,0.104,0.335,0.088,0.51c-0.076,0.842-0.252,3.158-0.358,4.563c1.413-0.07,3.777-0.19,4.841-0.264
		C9.739,22.893,9.762,22.892,9.785,22.892z"/>
</g>
<g>
	<path fill="#FFFFFF" d="M10.909,12.581c0,0,0.501,4.376,5.042,4.542l0.291-1.084l3.292,0.625c0,0,0.708,3.376-3.542,2.709
		s-6.791-5.334-7.458-8.084s1.917-2.75,1.917-2.75l1.583,3L10.909,12.581z"/>
</g>
</svg>
