<?xml version="1.0" encoding="utf-8"?>
<!-- Generator: Adobe Illustrator 15.1.0, SVG Export Plug-In . SVG Version: 6.00 Build 0)  -->
<!DOCTYPE svg PUBLIC "-//W3C//DTD SVG 1.1//EN" "http://www.w3.org/Graphics/SVG/1.1/DTD/svg11.dtd">
<svg version="1.1" id="Слой_1" xmlns="http://www.w3.org/2000/svg" xmlns:xlink="http://www.w3.org/1999/xlink" x="0px" y="0px"
	 width="60.824px" height="19.588px" viewBox="0 0 60.824 19.588" enable-background="new 0 0 60.824 19.588" xml:space="preserve">
<g>
	<circle fill="#A4B3B7" cx="9.727" cy="15.761" r="3.827"/>
	<circle fill="#A4B3B7" cx="47.852" cy="15.761" r="3.827"/>
	<path fill="#A4B3B7" d="M60.602,4.949c0,0-5.688,0.75-9.625-1.5s-8.188-3.813-15.188-3.375S19.977,5.761,18.914,5.761
		s-15.75,0.75-17.688,3s-1,8.188-1,8.188h4.658c-0.094-0.383-0.158-0.776-0.158-1.188c0-2.757,2.243-5,5-5s5,2.243,5,5
		c0,0.522-0.103,1.018-0.253,1.491c0.26,0.144,28.628,0,28.628,0c-0.147-0.472-0.25-0.971-0.25-1.491c0-2.757,2.243-5,5-5
		s5,2.243,5,5c0,0.448-0.078,0.875-0.189,1.288l1.877-0.038c0,0,5.563-0.625,6.063-3.5S60.602,4.949,60.602,4.949z"/>
</g>
</svg>
