<?xml version="1.0" encoding="utf-8"?>
<!-- Generator: Adobe Illustrator 15.1.0, SVG Export Plug-In . SVG Version: 6.00 Build 0)  -->
<!DOCTYPE svg PUBLIC "-//W3C//DTD SVG 1.1//EN" "http://www.w3.org/Graphics/SVG/1.1/DTD/svg11.dtd">
<svg version="1.1" id="Слой_1" xmlns="http://www.w3.org/2000/svg" xmlns:xlink="http://www.w3.org/1999/xlink" x="0px" y="0px"
	 width="16.5px" height="16.5px" viewBox="0 0 16.5 16.5" enable-background="new 0 0 16.5 16.5" xml:space="preserve">
<g>
	<g>
		<path fill="#5C6466" d="M8.25,0C3.701,0,0,3.702,0,8.25s3.701,8.25,8.25,8.25s8.25-3.701,8.25-8.25S12.799,0,8.25,0z M8.25,15.5
			C4.252,15.5,1,12.249,1,8.25S4.252,1,8.25,1c3.998,0,7.25,3.252,7.25,7.25S12.248,15.5,8.25,15.5z"/>
		<path fill="#5C6466" d="M8.75,4.25h-1c-0.345,0-0.625,0.279-0.625,0.625c0,0.344,0.28,0.625,0.625,0.625h1
			c0.346,0,0.625-0.281,0.625-0.625C9.375,4.53,9.096,4.25,8.75,4.25z"/>
		<rect x="7.417" y="6.917" fill="#5C6466" width="1.667" height="5"/>
	</g>
</g>
</svg>
