<?xml version="1.0" encoding="utf-8"?>
<!-- Generator: Adobe Illustrator 15.1.0, SVG Export Plug-In . SVG Version: 6.00 Build 0)  -->
<!DOCTYPE svg PUBLIC "-//W3C//DTD SVG 1.1//EN" "http://www.w3.org/Graphics/SVG/1.1/DTD/svg11.dtd">
<svg version="1.1" id="Слой_1" xmlns="http://www.w3.org/2000/svg" xmlns:xlink="http://www.w3.org/1999/xlink" x="0px" y="0px"
	 width="69.985px" height="68.839px" viewBox="0 0 69.985 68.839" enable-background="new 0 0 69.985 68.839" xml:space="preserve">
<path d="M69.828,36.845L62.052,4.351C61.429,1.749,59.105,0,56.542,0c-0.437,0-0.881,0.051-1.324,0.157L8.866,11.25
	c-3.045,0.729-4.923,3.788-4.194,6.833l1.638,6.842c0.473-0.001,0.946-0.009,1.418,0.002c0.194-0.009,0.386-0.009,0.58-0.015
	l0.287,1.251l51.728-11.856l0.888,3.709l-25.894,5.935l0.894,3.898l25.931-5.943l3.798,15.869c0.14,0.584-0.066,1.041-0.201,1.261
	c-0.135,0.221-0.449,0.61-1.035,0.751l-6.186,1.48c-0.044,0.972-0.162,1.948-0.208,2.83c-0.024,0.449-0.047,0.9-0.072,1.35
	l7.398-1.771C68.679,42.949,70.557,39.89,69.828,36.845z M9.677,21.813l-1.115-4.661c-0.14-0.585,0.066-1.042,0.201-1.262
	c0.135-0.22,0.449-0.61,1.035-0.75L56.149,4.047C56.28,4.016,56.412,4,56.543,4c0.772,0,1.438,0.527,1.619,1.282l1.229,5.136
	L9.677,21.813z"/>
<g>
	<path fill="#CB2F30" d="M53.331,28.089c0.92,0,1.669,0.749,1.669,1.669V63.17c0,0.92-0.749,1.669-1.669,1.669H5.669
		C4.749,64.839,4,64.09,4,63.17V29.758c0-0.92,0.749-1.669,1.669-1.669H53.331 M53.331,24.089H5.669C2.538,24.089,0,26.627,0,29.758
		V63.17c0,3.131,2.538,5.669,5.669,5.669h47.661c3.131,0,5.669-2.538,5.669-5.669V29.758C59,26.627,56.462,24.089,53.331,24.089
		L53.331,24.089z"/>
</g>
<g>
	<path fill="#CB2F30" d="M22.25,36.089v4.25H12v-4.25H22.25 M24.833,32.089H9.417C8.635,32.089,8,32.724,8,33.506v9.415
		c0,0.783,0.635,1.417,1.417,1.417h15.415c0.783,0,1.417-0.635,1.417-1.417v-9.415C26.25,32.724,25.615,32.089,24.833,32.089
		L24.833,32.089z"/>
</g>
<g>
	<path fill="#CB2F30" d="M25.25,60.839H9.5c-1.104,0-2-0.896-2-2s0.896-2,2-2h15.75c1.104,0,2,0.896,2,2S26.354,60.839,25.25,60.839
		z"/>
</g>
<g>
	<path fill="#CB2F30" d="M15,52.839H9.5c-1.104,0-2-0.896-2-2s0.896-2,2-2H15c1.104,0,2,0.896,2,2S16.104,52.839,15,52.839z"/>
</g>
<g>
	<path fill="#CB2F30" d="M27.25,52.839h-5.5c-1.104,0-2-0.896-2-2s0.896-2,2-2h5.5c1.104,0,2,0.896,2,2S28.354,52.839,27.25,52.839z
		"/>
</g>
<g>
	<path fill="#CB2F30" d="M39.5,52.839H34c-1.104,0-2-0.896-2-2s0.896-2,2-2h5.5c1.104,0,2,0.896,2,2S40.604,52.839,39.5,52.839z"/>
</g>
<g>
	<path fill="#CB2F30" d="M49.75,44.339h-9.5c-1.104,0-2-0.896-2-2s0.896-2,2-2h9.5c1.104,0,2,0.896,2,2S50.854,44.339,49.75,44.339z
		"/>
</g>
<g>
	<path fill="#CB2F30" d="M49.75,36.089h-9.5c-1.104,0-2-0.896-2-2s0.896-2,2-2h9.5c1.104,0,2,0.896,2,2S50.854,36.089,49.75,36.089z
		"/>
</g>
</svg>
