<?xml version="1.0" encoding="utf-8"?>
<!-- Generator: Adobe Illustrator 15.1.0, SVG Export Plug-In . SVG Version: 6.00 Build 0)  -->
<!DOCTYPE svg PUBLIC "-//W3C//DTD SVG 1.1//EN" "http://www.w3.org/Graphics/SVG/1.1/DTD/svg11.dtd">
<svg version="1.1" id="Слой_1" xmlns="http://www.w3.org/2000/svg" xmlns:xlink="http://www.w3.org/1999/xlink" x="0px" y="0px"
	 width="65px" height="65.167px" viewBox="0 0 65 65.167" enable-background="new 0 0 65 65.167" xml:space="preserve">
<path d="M63.974,59.192L47.388,42.606c0,0-0.417-1.92-0.116-2.366c2.772-4.115,4.395-9.071,4.395-14.407
	C51.667,11.566,40.101,0,25.833,0C11.566,0,0,11.566,0,25.833c0,14.268,11.566,25.833,25.833,25.833
	c5.251,0,10.136-1.567,14.213-4.26c0.448-0.296,2.562,0.317,2.562,0.317l16.417,16.418c0.684,0.684,1.579,1.025,2.475,1.025
	s1.791-0.342,2.475-1.025C65.341,62.775,65.341,60.559,63.974,59.192z M5,25.833C5,14.346,14.346,5,25.833,5
	c11.488,0,20.833,9.346,20.833,20.833c0,5.662-2.277,10.797-5.955,14.556c-0.09,0.073-0.186,0.136-0.27,0.22
	c-0.065,0.065-0.113,0.142-0.172,0.211c-3.748,3.611-8.833,5.847-14.437,5.847C14.346,46.666,5,37.32,5,25.833z"/>
<circle fill="#CB2F30" cx="25.999" cy="25.833" r="8.667"/>
</svg>
