<?xml version="1.0" encoding="utf-8"?>
<!-- Generator: Adobe Illustrator 15.1.0, SVG Export Plug-In . SVG Version: 6.00 Build 0)  -->
<!DOCTYPE svg PUBLIC "-//W3C//DTD SVG 1.1//EN" "http://www.w3.org/Graphics/SVG/1.1/DTD/svg11.dtd">
<svg version="1.1" id="Слой_1" xmlns="http://www.w3.org/2000/svg" xmlns:xlink="http://www.w3.org/1999/xlink" x="0px" y="0px"
	 width="83.417px" height="68.917px" viewBox="0 0 83.417 68.917" enable-background="new 0 0 83.417 68.917" xml:space="preserve">
<g>
	<path d="M15.6,42.985v2.512c0,0.971,0.584,1.846,1.481,2.218c0.297,0.122,0.609,0.183,0.918,0.183c0.625,0,1.238-0.244,1.698-0.703
		l1.776-1.776l2.027,2.026l-1.777,1.776c-0.686,0.687-0.892,1.719-0.52,2.615c0.372,0.897,1.247,1.482,2.217,1.482h2.513v2.866
		h-2.511c-0.971,0-1.846,0.585-2.217,1.482c-0.372,0.896-0.166,1.929,0.52,2.615l1.776,1.775l-2.028,2.027l-1.776-1.776
		c-0.459-0.459-1.073-0.703-1.698-0.703c-0.309,0-0.621,0.061-0.918,0.183c-0.897,0.372-1.481,1.247-1.481,2.218v2.512h-2.866
		v-2.512c0-0.971-0.584-1.846-1.481-2.218c-0.297-0.123-0.609-0.183-0.918-0.183c-0.625,0-1.238,0.244-1.698,0.703L6.86,64.084
		l-2.028-2.027l1.776-1.775c0.686-0.687,0.892-1.719,0.52-2.615c-0.372-0.897-1.247-1.482-2.217-1.482H2.4v-2.866h2.511
		c0.971,0,1.846-0.585,2.217-1.482c0.372-0.896,0.166-1.929-0.52-2.615l-1.776-1.775l2.028-2.027l1.776,1.776
		c0.459,0.459,1.073,0.703,1.698,0.703c0.309,0,0.621-0.061,0.918-0.183c0.897-0.372,1.481-1.247,1.481-2.218v-2.512H15.6
		 M16.866,40.584h-5.399c-0.625,0-1.133,0.508-1.133,1.134v3.778l-2.672-2.672c-0.221-0.221-0.511-0.332-0.801-0.332
		s-0.581,0.111-0.802,0.332L2.24,46.643c-0.441,0.442-0.441,1.16,0,1.604l2.671,2.671H1.135C0.508,50.917,0,51.425,0,52.051v5.399
		c0,0.626,0.508,1.134,1.135,1.134h3.776L2.24,61.255c-0.441,0.443-0.441,1.161,0,1.604l3.818,3.818
		c0.221,0.222,0.511,0.332,0.801,0.332s0.581-0.11,0.802-0.332l2.672-2.672v3.778c0,0.626,0.508,1.134,1.133,1.134h5.399
		c0.626,0,1.134-0.508,1.134-1.134v-3.778l2.672,2.672c0.221,0.222,0.511,0.332,0.801,0.332s0.581-0.11,0.802-0.332l3.818-3.818
		c0.441-0.442,0.441-1.16,0-1.604l-2.671-2.671h3.776c0.627,0,1.135-0.508,1.135-1.134v-5.399c0-0.626-0.508-1.134-1.135-1.134
		h-3.778l2.672-2.672c0.442-0.442,0.442-1.16,0-1.604l-3.817-3.817c-0.222-0.221-0.512-0.332-0.802-0.332s-0.58,0.111-0.801,0.332
		L18,45.497v-3.778C18,41.092,17.492,40.584,16.866,40.584L16.866,40.584z"/>
</g>
<g>
	<path d="M14.166,50.985c2.077,0,3.767,1.689,3.767,3.767s-1.69,3.767-3.767,3.767c-2.077,0-3.766-1.689-3.766-3.767
		S12.089,50.985,14.166,50.985 M14.166,48.584C10.76,48.584,8,51.345,8,54.751c0,3.405,2.76,6.167,6.166,6.167
		s6.167-2.762,6.167-6.167C20.333,51.345,17.572,48.584,14.166,48.584L14.166,48.584z"/>
</g>
<g>
	<path d="M27.083,67c-0.824,0-1.495-0.665-1.5-1.491c-0.005-0.827,0.661-1.502,1.488-1.509l0,0
		c0.266-0.003,26.82-0.632,47.581-33.141c0.378-0.591,1.115-0.844,1.774-0.604l3.353,1.21l-2.19-8.76l-8.596,4.461l2.321,0.943
		c0.376,0.152,0.674,0.451,0.825,0.826c0.152,0.375,0.146,0.796-0.017,1.167c-0.312,0.709-8.001,17.44-39.705,24.691
		c-0.806,0.189-1.612-0.32-1.797-1.128c-0.185-0.807,0.32-1.611,1.128-1.796c25.04-5.728,34.36-17.607,36.867-21.619l-3.764-1.529
		c-0.542-0.22-0.907-0.735-0.934-1.32c-0.027-0.584,0.288-1.132,0.807-1.401l13.166-6.833c0.409-0.211,0.889-0.225,1.308-0.036
		c0.419,0.189,0.728,0.559,0.839,1.004l3.334,13.333c0.135,0.538-0.038,1.105-0.449,1.477s-0.993,0.485-1.516,0.298l-4.878-1.762
		C54.949,66.447,28.23,66.994,27.092,67C27.089,67,27.086,67,27.083,67z"/>
</g>
<g>
	<path fill="#CB2F30" d="M41.416,3c2.114,0,3.834,1.72,3.834,3.833c0,2.114-1.72,3.833-3.834,3.833c-2.113,0-3.833-1.72-3.833-3.833
		C37.583,4.72,39.302,3,41.416,3 M41.416,0c-3.772,0-6.833,3.06-6.833,6.833c0,3.774,3.061,6.833,6.833,6.833
		c3.773,0,6.834-3.06,6.834-6.833C48.25,3.06,45.189,0,41.416,0L41.416,0z"/>
</g>
<g>
	<path fill="#CB2F30" d="M35.894,53.173c-1.325,0-2.051-0.602-2.427-1.105c-0.9-1.208-0.496-2.777-0.405-3.08
		c1.964-6.82,2.366-18.482,2.435-24.575c-1.363,1.588-3.01,3.555-4.306,5.249c-2.15,2.811-3.606,3.624-6.489,3.624c0,0,0,0,0,0
		c-0.389,0-0.812-0.014-1.277-0.037c-1.799-0.09-2.452-1.036-2.681-1.592c-0.735-1.788,0.95-3.959,1.765-4.865
		c0.52-0.687,5.835-7.699,9.004-11.502c2.603-3.123,4.763-3.779,6.116-3.779c0.414,0,0.724,0.064,0.914,0.119
		c0.075,0.011,0.425,0.062,1.085,0.062c0.887,0,1.949-0.087,3.159-0.26c2.85-0.407,4.214-1.96,4.227-1.976
		c0.095-0.113,0.204-0.211,0.327-0.292c0.067-0.044,6.756-4.456,8.971-6.513c1.081-1.004,2.15-1.513,3.178-1.513
		c1.17,0,2.015,0.661,2.411,1.259c0.133,0.18,0.651,0.885,1.66,2.326c0.754,1.076,0.704,2.019,0.529,2.621
		c-0.339,1.167-1.34,1.793-1.811,2.03c-0.845,0.639-5.773,4.355-9.413,6.934c-2.736,1.938-2.736,1.938-2.622,3.558
		c0.029,0.42,0.063,0.909,0.087,1.492c0.063,1.589,0.098,2.465,3.753,4.012c4.775,2.021,5.47,6.545,6.083,10.537l0.146,0.939
		c0.527,3.299-0.294,5.271-1.076,6.346c-0.809,1.109-1.995,1.834-3.343,2.042c-0.143,0.021-0.28,0.032-0.416,0.032
		c-3.054,0-3.813-4.494-4.423-8.105c-0.07-0.414-0.135-0.798-0.198-1.133c-0.232-1.24-1.015-2.644-5.056-3.655
		c-0.304-0.076-0.545-0.121-0.733-0.146c-0.15,1.599-0.494,4.936-1.084,9.068c-0.078,0.543-0.148,1.063-0.216,1.56
		c-0.668,4.938-1.15,8.505-5.995,9.996C37.067,53.068,36.453,53.173,35.894,53.173z M37,18.917c0.175,0,0.353,0.031,0.523,0.095
		c0.578,0.215,0.965,0.763,0.976,1.379c0.014,0.792,0.303,19.505-2.559,29.441c-0.027,0.099-0.043,0.232-0.046,0.342
		c0.173,0,0.486-0.033,0.996-0.19c2.875-0.885,3.226-2.514,3.905-7.531c0.068-0.504,0.14-1.031,0.218-1.581
		c0.816-5.713,1.153-9.866,1.156-9.907c0.007-0.082,0.02-0.163,0.039-0.243c0.063-0.254,0.48-1.524,2.472-1.524
		c0.531,0,1.136,0.086,1.85,0.265c2.77,0.693,6.537,2.07,7.276,6.013c0.065,0.351,0.134,0.752,0.207,1.186
		c0.229,1.356,0.826,4.888,1.56,5.588c0.488-0.102,0.916-0.379,1.239-0.823c0.632-0.867,0.823-2.325,0.538-4.104l-0.149-0.959
		c-0.565-3.682-1.053-6.861-4.287-8.229c-4.598-1.946-5.463-3.696-5.581-6.655c-0.021-0.547-0.054-1.006-0.082-1.401
		c-0.223-3.181,0.234-3.633,3.881-6.216c3.935-2.787,9.406-6.93,9.462-6.972c0.101-0.077,0.211-0.14,0.328-0.189
		c0.071-0.033,0.173-0.102,0.24-0.162c-0.014-0.025-0.033-0.056-0.059-0.093c-1.134-1.619-1.627-2.278-1.639-2.293
		c-0.002-0.003-0.004-0.006-0.006-0.009c-0.109,0.017-0.468,0.115-1.106,0.708c-2.228,2.069-8.159,6.024-9.211,6.72
		c-0.572,0.591-2.527,2.346-5.931,2.832c-1.349,0.193-2.555,0.291-3.583,0.291c-1.125,0-1.683-0.118-1.827-0.154
		c-0.059-0.015-0.082-0.014-0.087-0.014c-0.01,0-0.015,0-0.037-0.012c-0.309-0.014-1.67,0.07-3.86,2.698
		c-3.272,3.927-8.899,11.369-8.956,11.444c-0.028,0.037-0.058,0.073-0.089,0.107c-0.42,0.463-0.835,1.064-1.054,1.498
		c0.354,0.017,0.68,0.026,0.983,0.026c1.811,0,2.407-0.226,4.106-2.447c2.759-3.606,6.9-8.229,7.075-8.424
		C36.173,19.092,36.582,18.917,37,18.917z"/>
</g>
</svg>
