<?xml version="1.0" encoding="utf-8"?>
<!-- Generator: Adobe Illustrator 15.1.0, SVG Export Plug-In . SVG Version: 6.00 Build 0)  -->
<!DOCTYPE svg PUBLIC "-//W3C//DTD SVG 1.1//EN" "http://www.w3.org/Graphics/SVG/1.1/DTD/svg11.dtd">
<svg version="1.1" id="Слой_1" xmlns="http://www.w3.org/2000/svg" xmlns:xlink="http://www.w3.org/1999/xlink" x="0px" y="0px"
	 width="73.479px" height="74.833px" viewBox="0 0 73.479 74.833" enable-background="new 0 0 73.479 74.833" xml:space="preserve">
<g>
	<path d="M39.146,73.667H7.669C3.44,73.667,0,70.226,0,65.998V7.669C0,3.44,3.44,0,7.669,0h46.995c4.229,0,7.669,3.44,7.669,7.669
		v27.165c0,1.104-0.896,2-2,2s-2-0.896-2-2V7.669C58.333,5.646,56.688,4,54.665,4H7.669C5.646,4,4,5.646,4,7.669v58.328
		c0,2.023,1.646,3.669,3.669,3.669h31.476c1.104,0,2,0.896,2,2S40.25,73.667,39.146,73.667z"/>
</g>
<g>
	<g>
		<path d="M50.417,12.167v7.167h-38.5v-7.167H50.417 M51.583,8.167H10.751c-1.565,0-2.834,1.269-2.834,2.834v9.498
			c0,1.565,1.269,2.834,2.834,2.834h40.831c1.564,0,2.834-1.269,2.834-2.834v-9.498C54.417,9.436,53.147,8.167,51.583,8.167
			L51.583,8.167z"/>
	</g>
	<g>
		<g>
			<g>
				<path d="M15,30.5V34h-3.5v-3.5H15 M15.166,27.5h-3.831c-1.565,0-2.834,1.269-2.834,2.834v3.831C8.5,35.731,9.769,37,11.334,37
					h3.831C16.731,37,18,35.731,18,34.166v-3.831C18,28.769,16.731,27.5,15.166,27.5L15.166,27.5z"/>
			</g>
			<g>
				<path d="M26.944,30.5V34h-3.5v-3.5H26.944 M27.11,27.5h-3.831c-1.565,0-2.834,1.269-2.834,2.834v3.831
					c0,1.565,1.269,2.834,2.834,2.834h3.831c1.565,0,2.834-1.269,2.834-2.834v-3.831C29.944,28.769,28.675,27.5,27.11,27.5
					L27.11,27.5z"/>
			</g>
			<g>
				<path d="M38.889,30.5V34h-3.5v-3.5H38.889 M39.053,27.5h-3.83c-1.565,0-2.834,1.269-2.834,2.834v3.831
					c0,1.565,1.269,2.834,2.834,2.834h3.83c1.566,0,2.836-1.269,2.836-2.834v-3.831C41.889,28.769,40.62,27.5,39.053,27.5
					L39.053,27.5z"/>
			</g>
			<g>
				<path d="M50.834,30.5V34h-3.5v-3.5H50.834 M50.999,27.5h-3.83c-1.566,0-2.834,1.269-2.834,2.834v3.831
					c0,1.565,1.268,2.834,2.834,2.834h3.83c1.566,0,2.836-1.269,2.836-2.834v-3.831C53.834,28.769,52.565,27.5,50.999,27.5
					L50.999,27.5z"/>
			</g>
		</g>
		<g>
			<g>
				<path d="M15,43v3.5h-3.5V43H15 M15.166,40h-3.831C9.769,40,8.5,41.269,8.5,42.833v3.832c0,1.564,1.269,2.834,2.834,2.834h3.831
					c1.565,0,2.834-1.27,2.834-2.834v-3.832C18,41.269,16.731,40,15.166,40L15.166,40z"/>
			</g>
			<g>
				<path d="M26.833,43v3.5h-3.5V43H26.833 M26.999,40h-3.831c-1.565,0-2.834,1.27-2.834,2.834v3.832
					c0,1.564,1.269,2.834,2.834,2.834h3.831c1.565,0,2.834-1.27,2.834-2.834v-3.832C29.833,41.269,28.564,40,26.999,40L26.999,40z"
					/>
			</g>
			<g>
				<path d="M39.886,46.208c0.458-0.722,1.006-1.371,1.641-1.884c0.043-0.034,0.092-0.057,0.14-0.082v-1.408
					c0-1.564-1.268-2.834-2.834-2.834h-3.831c-1.565,0-2.834,1.27-2.834,2.834v3.832c0,1.564,1.269,2.834,2.834,2.834h3.087
					C38.52,48.277,39.118,47.181,39.886,46.208z M35.167,43h3.5v3.5h-3.5V43z"/>
			</g>
		</g>
		<g>
			<g>
				<path d="M15,55.667v3.5h-3.5v-3.5H15 M15.166,52.667h-3.831c-1.565,0-2.834,1.27-2.834,2.834v3.832
					c0,1.564,1.269,2.834,2.834,2.834h3.831c1.565,0,2.834-1.27,2.834-2.834V55.5C18,53.936,16.731,52.667,15.166,52.667
					L15.166,52.667z"/>
			</g>
			<g>
				<path d="M26.833,55.667v3.5h-3.5v-3.5H26.833 M26.999,52.667h-3.831c-1.565,0-2.834,1.27-2.834,2.834v3.832
					c0,1.564,1.269,2.834,2.834,2.834h3.831c1.565,0,2.834-1.27,2.834-2.834V55.5C29.833,53.936,28.564,52.667,26.999,52.667
					L26.999,52.667z"/>
			</g>
			<g>
				<path d="M38.064,59.167h-2.897v-3.5h2.561c0.075-0.939,0.299-1.879,0.69-2.79c0.034-0.079,0.077-0.146,0.123-0.21h-3.539
					c-1.565,0-2.834,1.27-2.834,2.834v3.832c0,1.564,1.269,2.834,2.834,2.834h3.831c0.109,0,0.213-0.021,0.319-0.032
					C38.573,61.245,38.229,60.232,38.064,59.167z"/>
			</g>
		</g>
	</g>
</g>
<g>
	<g>
		<path fill="#CB2F30" d="M54.896,37.667c-10.264,0-18.583,8.32-18.583,18.583c0,10.264,8.32,18.583,18.583,18.583
			c10.263,0,18.583-8.319,18.583-18.583C73.479,45.987,65.159,37.667,54.896,37.667z M54.896,70.833
			c-8.041,0-14.583-6.542-14.583-14.583s6.542-14.583,14.583-14.583s14.583,6.542,14.583,14.583S62.937,70.833,54.896,70.833z"/>
	</g>
	<g>
		<path fill="#CB2F30" d="M58.248,48.905c-0.5-0.134-1.574-0.201-3.223-0.201h-4.349v6.067h-2.229v2.25h2.229v0.75h-2.229v2.063
			h2.229v0.656h-0.01v2.25h2.719v-0.614h0.001v-2.292h2.062v-2.063h-2.062v-0.709h1.768c1.227,0,2.163-0.063,2.811-0.191
			c0.476-0.104,0.944-0.316,1.405-0.637s0.841-0.762,1.14-1.323s0.449-1.254,0.449-2.078c0-1.068-0.26-1.939-0.778-2.614
			C59.661,49.544,59.017,49.106,58.248,48.905z M57.859,53.913c-0.205,0.3-0.487,0.52-0.847,0.659
			c-0.36,0.141-1.074,0.211-2.143,0.211h-1.422v-0.012h-0.062v-3.797h1.31c0.977,0,1.626,0.03,1.95,0.092
			c0.439,0.079,0.803,0.277,1.089,0.595c0.287,0.317,0.431,0.721,0.431,1.208C58.166,53.266,58.063,53.614,57.859,53.913z"/>
	</g>
</g>
</svg>
