<?xml version="1.0" encoding="utf-8"?>
<!-- Generator: Adobe Illustrator 15.1.0, SVG Export Plug-In . SVG Version: 6.00 Build 0)  -->
<!DOCTYPE svg PUBLIC "-//W3C//DTD SVG 1.1//EN" "http://www.w3.org/Graphics/SVG/1.1/DTD/svg11.dtd">
<svg version="1.1" id="Слой_1" xmlns="http://www.w3.org/2000/svg" xmlns:xlink="http://www.w3.org/1999/xlink" x="0px" y="0px"
	 width="57.5px" height="75.167px" viewBox="0 0 57.5 75.167" enable-background="new 0 0 57.5 75.167" xml:space="preserve">
<g>
	<path fill="#CB2F30" d="M34.712,49.542c-0.079,0.442-0.187,0.871-0.339,1.28c-0.021,0.159-0.043,0.32-0.053,0.483
		c-0.026,0.419-0.262,0.674-0.555,0.801c-0.183,0.313-0.383,0.619-0.604,0.924c-0.087,0.12-0.189,0.206-0.299,0.274
		c10.585,1.517,18.918,8.763,20.402,17.86H4.236c1.536-9.414,10.403-16.842,21.512-17.992c-0.027-0.031-0.066-0.047-0.088-0.082
		c-0.62-0.99-1.355-2.529-1.254-3.807C10.589,51.112,0,61.519,0,74.083c0,0.362,0.014,0.725,0.031,1.084h57.438
		c0.018-0.359,0.031-0.722,0.031-1.084C57.5,62.015,47.729,51.938,34.712,49.542z"/>
</g>
<g>
	<g>
		<g>
			<path d="M48.914,14.25H45.82c0.367,1.294,0.629,2.636,0.787,4h2.306c2.022,0,3.669,1.646,3.669,3.669v2.911
				c0,2.023-1.646,3.669-3.669,3.669h-2.615c-0.159,1.388-0.399,2.734-0.714,3.992c0.057,0.001,0.111,0.008,0.167,0.008h3.161
				c4.229,0,7.669-3.44,7.669-7.669v-2.911C56.583,17.69,53.143,14.25,48.914,14.25z"/>
		</g>
	</g>
	<g>
		<g>
			<path d="M9.712,14.25h3.093c-0.368,1.294-0.629,2.636-0.788,4H9.712c-2.023,0-3.669,1.646-3.669,3.669v2.911
				c0,2.023,1.646,3.669,3.669,3.669h2.615c0.159,1.388,0.4,2.734,0.714,3.992c-0.056,0.001-0.111,0.008-0.167,0.008H9.712
				c-4.229,0-7.669-3.44-7.669-7.669v-2.911C2.043,17.69,5.483,14.25,9.712,14.25z"/>
		</g>
	</g>
	<g>
		<path d="M12.833,45.5c-8.503,0-10.75-7.522-10.75-11.5V21.919c0-4.229,3.44-7.669,7.669-7.669h3.081c1.104,0,2,0.896,2,2
			s-0.896,2-2,2H9.752c-2.023,0-3.669,1.646-3.669,3.669V34c0,0.306,0.077,7.5,6.75,7.5c1.104,0,2,0.896,2,2
			S13.938,45.5,12.833,45.5z"/>
	</g>
	<g>
		<path d="M29.083,45.75c-10.063,0-18.25-8.187-18.25-18.25V13.338C10.833,5.983,16.816,0,24.171,0h9.823
			c7.354,0,13.338,5.983,13.338,13.338l0.001,14.161C47.333,37.563,39.146,45.75,29.083,45.75z M24.171,4
			c-5.149,0-9.338,4.189-9.338,9.338V27.5c0,7.857,6.393,14.25,14.25,14.25s14.25-6.392,14.25-14.25l-0.001-14.162
			C43.332,8.189,39.144,4,33.994,4H24.171z"/>
	</g>
	<g>
		<path d="M44.333,21.5h-11.5c-6.553,0-9.798-4.849-11.09-8.953l-6.551,4.367c-0.92,0.613-2.161,0.363-2.773-0.555
			c-0.613-0.919-0.364-2.161,0.555-2.773l9-6c0.585-0.39,1.332-0.442,1.966-0.143c0.635,0.301,1.065,0.914,1.134,1.613
			c0.035,0.339,0.954,8.444,7.759,8.444h11.5c1.104,0,2,0.896,2,2S45.438,21.5,44.333,21.5z"/>
	</g>
	<g>
		<path d="M29.208,58c-4.756,0-8.625-3.869-8.625-8.625v-6c0-1.104,0.896-2,2-2s2,0.896,2,2v6c0,2.55,2.075,4.625,4.625,4.625
			c2.55,0,4.625-2.075,4.625-4.625v-6c0-1.104,0.896-2,2-2s2,0.896,2,2v6C37.833,54.13,33.964,58,29.208,58z"/>
	</g>
</g>
</svg>
