<svg width="0" height="0" class="hidden">
    <symbol xmlns="http://www.w3.org/2000/svg" viewBox="0 0 23.8 16.9" id="icon-bars">
        <path fill="currentColor" d="M1.5,3h20.8c0.8,0,1.5-0.7,1.5-1.5S23.2,0,22.3,0H1.5C0.7,0,0,0.7,0,1.5S0.7,3,1.5,3z"/>
        <path fill="currentColor" d="M22.3,6.9H1.5C0.7,6.9,0,7.6,0,8.4s0.7,1.5,1.5,1.5h20.8c0.8,0,1.5-0.7,1.5-1.5S23.2,6.9,22.3,6.9z"/>
        <path fill="currentColor" d="M22.3,13.9H10.1c-0.8,0-1.5,0.7-1.5,1.5s0.7,1.5,1.5,1.5h12.2c0.8,0,1.5-0.7,1.5-1.5S23.2,13.9,22.3,13.9z"/>
    </symbol>

    <symbol xmlns="http://www.w3.org/2000/svg" viewBox="0 0 16.5 16.5" id="icon-search">
        <path fill="currentColor" d="M16.2,14.8L12,10.5c0.8-1.1,1.3-2.5,1.3-3.9c0-3.7-3-6.6-6.6-6.6C3,0,0,3,0,6.6s3,6.6,6.6,6.6c1.5,0,2.8-0.5,3.9-1.3
        l4.3,4.3c0.2,0.2,0.5,0.3,0.7,0.3s0.5-0.1,0.7-0.3C16.6,15.8,16.6,15.2,16.2,14.8z M2,6.6C2,4.1,4.1,2,6.6,2c2.5,0,4.6,2.1,4.6,4.6
        s-2.1,4.6-4.6,4.6C4.1,11.2,2,9.2,2,6.6z"/>
    </symbol>

    <symbol xmlns="http://www.w3.org/2000/svg" viewBox="0 0 31.688 28.603" id="icon-cart">
        <path fill="currentColor" d="M10.781,21.479c-1.964,0-3.563,1.598-3.563,3.562c0,1.965,1.598,3.563,3.563,3.563
		c1.964,0,3.562-1.598,3.562-3.563C14.343,23.076,12.745,21.479,10.781,21.479z M10.781,26.603c-0.861,0-1.563-0.701-1.563-1.563
		s0.701-1.562,1.563-1.562c0.861,0,1.562,0.7,1.562,1.562S11.642,26.603,10.781,26.603z"/>
        <path fill="currentColor" d="M25.395,21.479c-1.965,0-3.563,1.598-3.563,3.562c0,1.965,1.598,3.563,3.563,3.563
        c1.964,0,3.562-1.598,3.562-3.563C28.956,23.076,27.358,21.479,25.395,21.479z M25.395,26.603c-0.861,0-1.563-0.701-1.563-1.563
        s0.701-1.562,1.563-1.562s1.562,0.7,1.562,1.562S26.256,26.603,25.395,26.603z"/>
        <path fill="currentColor" d="M31.494,5.784c-0.188-0.257-0.488-0.409-0.807-0.409H7.247C6.848,3.692,6.582,2.486,6.563,2.188
        c0-1.352-1.115-2.079-2.25-2.188H1C0.448,0,0,0.448,0,1s0.448,1,1,1h3.239C4.377,2.027,4.53,2.102,4.563,2.188
        c0,1.104,2.99,12.765,3.907,16.313c0.114,0.441,0.512,0.75,0.968,0.75h17.5c0.437,0,0.822-0.283,0.953-0.699l3.75-11.875
        C31.737,6.372,31.683,6.041,31.494,5.784z M26.205,17.25H10.212c-0.774-3.01-1.74-6.827-2.483-9.875h21.594L26.205,17.25z"/>
    </symbol>

    <symbol xmlns="http://www.w3.org/2000/svg" viewBox="0 0 24 19.458" id="icon-camera">
        <path fill="currentColor" d="M21.063,3.208h-4.375V2.834c0-1.565-1.27-2.834-2.835-2.834h-3.706C8.582,0,7.313,1.269,7.313,2.834v0.374
        H2.936C1.314,3.208,0,4.477,0,6.042v10.581c0,1.565,1.314,2.835,2.936,2.835h18.127c1.622,0,2.938-1.27,2.938-2.835V6.042
        C24,4.477,22.685,3.208,21.063,3.208z M12,16.167c-2.911,0-5.271-2.36-5.271-5.271c0-2.911,2.36-5.271,5.271-5.271
        s5.271,2.36,5.271,5.271C17.271,13.807,14.911,16.167,12,16.167z"/>
        <circle fill="currentColor" cx="12" cy="10.936" r="2.562"/>
    </symbol>

    <symbol xmlns="http://www.w3.org/2000/svg" viewBox="0 0 8.7 11.7" id="icon-balloon">
        <path fill="currentColor" d="M4.3,0C1.9,0,0,1.9,0,4.3c0,4.2,4.3,7.3,4.3,7.3s4.3-3.2,4.3-7.3C8.7,1.9,6.7,0,4.3,0z M4.3,6.3c-1.1,0-2-0.9-2-2s0.9-2,2-2
	    s2,0.9,2,2S5.4,6.3,4.3,6.3z"/>
    </symbol>

    <symbol xmlns="http://www.w3.org/2000/svg" viewBox="0 0 16 16.2" id="icon-location">
        <polyline fill="currentColor" points="0,6.4 16,0 9.5,16.2 8,8.7 0,6.5 "/>
    </symbol>

    <symbol xmlns="http://www.w3.org/2000/svg" viewBox="0 0 1024 1024" id="icon-close">
        <path fill="currentColor" d="M231 185l281 281 281-281 46 46-281 281 281 281-46 46-281-281-281 281-46-46 281-281-281-281z"></path>
    </symbol>

    <symbol xmlns="http://www.w3.org/2000/svg" viewBox="0 0 41.401 20.714" id="icon-long-arrow-left">
        <path fill="currentColor" d="M39.901,8.881H5.321l6.92-6.27c0.614-0.556,0.661-1.505,0.104-2.119c-0.557-0.614-1.505-0.661-2.119-0.104
        l-9.75,8.833C0.281,9.399,0.164,9.623,0.085,9.857c-0.016,0.042-0.02,0.083-0.031,0.126C0.024,10.108-0.002,10.229,0,10.357
        c-0.002,0.128,0.024,0.249,0.054,0.374c0.012,0.042,0.016,0.085,0.031,0.126c0.079,0.235,0.196,0.458,0.392,0.636l9.75,8.833
        c0.288,0.261,0.647,0.389,1.007,0.389c0.409,0,0.816-0.166,1.112-0.493c0.556-0.613,0.509-1.563-0.104-2.118l-6.867-6.222h34.526
        c0.828,0,1.5-0.671,1.5-1.5S40.729,8.881,39.901,8.881z"/>
    </symbol>

    <symbol xmlns="http://www.w3.org/2000/svg" viewBox="0 0 41.401 20.714" id="icon-long-arrow-right">
        <path fill="currentColor" d="M41.401,10.356c0.002-0.128-0.023-0.25-0.055-0.375c-0.012-0.042-0.015-0.083-0.03-0.124
        c-0.079-0.235-0.195-0.459-0.393-0.637l-9.75-8.833c-0.612-0.554-1.562-0.51-2.118,0.105c-0.557,0.614-0.51,1.563,0.104,2.119
        l6.867,6.221H1.5c-0.829,0-1.5,0.672-1.5,1.5s0.671,1.5,1.5,1.5h34.582l-6.922,6.271c-0.614,0.556-0.661,1.505-0.104,2.118
        c0.296,0.327,0.703,0.493,1.111,0.493c0.359,0,0.72-0.128,1.007-0.389l9.75-8.833c0.197-0.178,0.313-0.401,0.393-0.637
        c0.016-0.041,0.019-0.082,0.03-0.124C41.377,10.606,41.403,10.484,41.401,10.356z"/>
    </symbol>

    <symbol xmlns="http://www.w3.org/2000/svg" viewBox="0 0 11.44 20.28" id="icon-chevron-left">
        <path fill="currentColor" d="M.43,9,8.87.45A1.5,1.5,0,1,1,11,2.55L3.6,10.07,11,17.74a1.5,1.5,0,0,1-2.16,2.09L.42,11.11A1.5,1.5,0,0,1,.43,9Z"/>
    </symbol>

    <symbol xmlns="http://www.w3.org/2000/svg" viewBox="0 0 11.44 20.28" id="icon-chevron-right">
        <path fill="currentColor" d="M11.44,10.06a1.5,1.5,0,0,1-.42,1L2.58,19.82A1.5,1.5,0,0,1,.42,17.74l7.42-7.67L.43,2.55A1.5,1.5,0,1,1,2.57.45L11,9A1.5,1.5,0,0,1,11.44,10.06Z"/>
    </symbol>

    <symbol xmlns="http://www.w3.org/2000/svg" viewBox="0 0 20.281 11.438" id="icon-chevron-up">
        <path fill="currentColor" d="M11.27.43l8.56,8.44A1.5,1.5,0,1,1,17.73,11L10.21,3.6,2.54,11A1.5,1.5,0,0,1,.46,8.86L9.18.42a1.5,1.5,0,0,1,2.1,0Z"/>
    </symbol>

    <symbol xmlns="http://www.w3.org/2000/svg" viewBox="0 0 20.281 11.438" id="icon-chevron-down">
        <path fill="currentColor" d="M10.219,11.438c-0.376,0-0.752-0.141-1.043-0.422L0.457,2.578c-0.596-0.576-0.611-1.526-0.035-2.121
		C1-0.139,1.949-0.153,2.543,0.422l7.666,7.419l7.52-7.409c0.59-0.582,1.539-0.574,2.121,0.016c0.581,0.59,0.574,1.54-0.016,2.121
		l-8.563,8.438C10.979,11.293,10.6,11.438,10.219,11.438z"/>
    </symbol>

    <symbol xmlns="http://www.w3.org/2000/svg" viewBox="0 0 9.897 8.625" id="icon-check">
        <path fill="currentColor" d="M3.835,8.625c-0.271,0-0.53-0.11-0.72-0.306L0.28,5.381c-0.384-0.397-0.372-1.03,0.025-1.414
		c0.397-0.383,1.03-0.374,1.414,0.025l2.027,2.101l4.355-5.701c0.337-0.439,0.963-0.522,1.402-0.188
		c0.438,0.335,0.522,0.963,0.188,1.401L4.63,8.231C4.452,8.463,4.184,8.606,3.893,8.623C3.873,8.624,3.854,8.625,3.835,8.625z"/>
    </symbol>

    <symbol xmlns="http://www.w3.org/2000/svg" viewBox="0 0 1024 1024" id="icon-minus">
        <path fill="currentColor" d="M160 480h704v64h-704v-64z"></path>
    </symbol>

    <symbol xmlns="http://www.w3.org/2000/svg" viewBox="0 0 1024 1024" id="icon-plus">
        <path fill="currentColor" d="M480 160h64v320h320v64h-320v320h-64v-320h-320v-64h320v-320z"></path>
    </symbol>

    <symbol xmlns="http://www.w3.org/2000/svg" viewBox="0 0 1024 1024" id="icon-info-circle">
        <path fill="currentColor" d="M512 96c229.372 0 416 186.629 416 416s-186.629 416-416 416-416-186.629-416-416 186.629-416 416-416zM512 160c-194.783 0-352 157.217-352 352s157.217 352 352 352 352-157.217 352-352-157.217-352-352-352zM480 320h64v64h-64v-64zM480 448h64v256h-64v-256z"></path>
    </symbol>

    <symbol xmlns="http://www.w3.org/2000/svg" viewBox="0 0 15.875 15.875" id="icon-tooltip">
        <path fill="currentColor" d="M7.938,0C3.554,0,0,3.554,0,7.938s3.554,7.938,7.938,7.938s7.938-3.554,7.938-7.938S12.321,0,7.938,0z
	 M8.803,12.633c-0.063,0.146-0.146,0.271-0.253,0.374s-0.232,0.186-0.377,0.245c-0.146,0.06-0.301,0.09-0.467,0.09
	c-0.167,0-0.322-0.03-0.467-0.09c-0.145-0.06-0.271-0.142-0.377-0.245s-0.189-0.229-0.249-0.374
	c-0.06-0.145-0.089-0.301-0.089-0.467c0-0.16,0.03-0.313,0.089-0.459s0.143-0.27,0.249-0.373c0.106-0.104,0.232-0.188,0.377-0.25
	c0.146-0.062,0.301-0.093,0.467-0.093c0.166,0,0.321,0.031,0.467,0.093c0.145,0.063,0.271,0.146,0.377,0.25
	c0.106,0.104,0.19,0.228,0.253,0.373c0.062,0.146,0.093,0.299,0.093,0.459C8.896,12.332,8.865,12.488,8.803,12.633z M10.865,6.808
	c-0.109,0.275-0.247,0.516-0.413,0.721c-0.166,0.204-0.348,0.384-0.545,0.536C9.71,8.218,9.525,8.359,9.352,8.489
	S9.026,8.747,8.896,8.874C8.767,9.001,8.688,9.146,8.663,9.306l-0.187,1.082H7.129L6.981,9.166C6.951,8.928,6.984,8.72,7.083,8.543
	c0.098-0.176,0.229-0.338,0.393-0.486c0.164-0.147,0.345-0.29,0.545-0.428s0.387-0.285,0.561-0.443S8.9,6.847,9.017,6.645
	s0.175-0.441,0.175-0.716c0-0.343-0.12-0.613-0.358-0.813c-0.239-0.199-0.553-0.3-0.942-0.3c-0.28,0-0.516,0.031-0.708,0.094
	S6.827,5.039,6.69,5.111C6.552,5.185,6.437,5.252,6.343,5.313C6.25,5.376,6.162,5.407,6.079,5.407c-0.177,0-0.314-0.08-0.413-0.241
	L5.145,4.333c0.176-0.15,0.367-0.293,0.572-0.428c0.205-0.135,0.428-0.253,0.669-0.354c0.241-0.101,0.5-0.18,0.778-0.237
	c0.277-0.057,0.577-0.085,0.899-0.085c0.446,0,0.851,0.061,1.214,0.183s0.674,0.296,0.934,0.521c0.259,0.226,0.46,0.498,0.603,0.816
	c0.143,0.319,0.214,0.677,0.214,1.07C11.028,6.203,10.974,6.533,10.865,6.808z"></path>
    </symbol>

    <symbol xmlns="http://www.w3.org/2000/svg" viewBox="0 0 24.459 25.21" id="icon-pointer">
        <path fill="currentColor" d="M24.089,15.223L9.256,8.14c-0.241-0.114-0.528-0.07-0.724,0.111C8.337,8.434,8.273,8.717,8.372,8.965
		l6.25,15.833c0.099,0.25,0.34,0.412,0.604,0.412c0.021,0,0.043-0.002,0.066-0.004c0.289-0.029,0.523-0.248,0.574-0.534l1.33-7.594
		l6.673-0.621c0.292-0.027,0.528-0.245,0.58-0.533S24.353,15.349,24.089,15.223z M16.583,15.829c-0.292,0.027-0.53,0.246-0.58,0.535
		l-1.019,5.812l-4.796-12.15l11.215,5.355L16.583,15.829z"></path>
        <path fill="currentColor" d="M6.1,11.85l-3.583,3.584c-0.254,0.254-0.254,0.666,0,0.92c0.127,0.127,0.293,0.19,0.459,0.19
            s0.333-0.063,0.459-0.19l3.583-3.584c0.254-0.254,0.254-0.666,0-0.92S6.354,11.596,6.1,11.85z"></path>
        <path fill="currentColor" d="M5.719,10.01c0.358,0,0.649-0.29,0.65-0.648C6.37,9.002,6.08,8.711,5.721,8.709L0.652,8.693
            c0,0-0.001,0-0.002,0c-0.358,0-0.649,0.29-0.65,0.648c-0.001,0.359,0.289,0.65,0.648,0.652l5.069,0.016
            C5.717,10.01,5.718,10.01,5.719,10.01z"/>
        <path fill="currentColor" d="M3.18,2.293C2.907,2.061,2.498,2.092,2.264,2.364C2.03,2.638,2.063,3.048,2.335,3.281l3.853,3.295
            C6.311,6.681,6.461,6.732,6.61,6.732c0.184,0,0.366-0.077,0.495-0.228c0.233-0.273,0.201-0.684-0.072-0.917L3.18,2.293z"></path>
        <path fill="currentColor" d="M9.619,6.369c0.001,0,0.003,0,0.005,0c0.359-0.003,0.647-0.296,0.645-0.655l-0.037-5.068
            C10.23,0.288,9.939,0,9.583,0C9.581,0,9.58,0,9.578,0C9.219,0.003,8.93,0.296,8.933,0.655l0.037,5.068
            C8.972,6.081,9.262,6.369,9.619,6.369z"></path>
        <path fill="currentColor" d="M12.226,7.293c0.167,0,0.333-0.063,0.459-0.19l3.583-3.584c0.254-0.254,0.254-0.666,0-0.92
            s-0.665-0.254-0.919,0l-3.583,3.584c-0.254,0.254-0.254,0.666,0,0.92C11.894,7.229,12.06,7.293,12.226,7.293z"></path>
    </symbol>

    <symbol xmlns="http://www.w3.org/2000/svg" viewBox="0 0 32.375 32.375" id="icon-play">
        <path fill="currentColor" d="M16.188,0C7.248,0,0,7.248,0,16.188c0,8.941,7.248,16.188,16.188,16.188c8.939,0,16.188-7.246,16.188-16.188
        C32.375,7.248,25.127,0,16.188,0z M21.94,16.48l-8.443,5.188c-0.531,0.326-0.96,0.084-0.954-0.541l0.102-9.857
        c0.006-0.623,0.457-0.883,1-0.578l8.273,4.641C22.461,15.637,22.472,16.154,21.94,16.48z"></path>
    </symbol>
</svg>
